<svg width="20" height="20" viewBox="0 0 20 20" fill="none" xmlns="http://www.w3.org/2000/svg">
<path fill-rule="evenodd" clip-rule="evenodd" d="M20 10C20 15.515 15.515 20 10 20C4.485 20 0 15.515 0 10C0 4.485 4.485 0 10 0C15.515 0 20 4.485 20 10ZM19.191 10C19.191 4.931 15.069 0.809 9.99999 0.809C4.93099 0.809 0.80899 4.931 0.80899 10C0.80899 15.069 4.93099 19.191 9.99999 19.191C15.069 19.191 19.191 15.069 19.191 10Z" fill="white"/>
<path fill-rule="evenodd" clip-rule="evenodd" d="M8.12525 13.1002C8.20725 13.1812 8.31825 13.2242 8.42625 13.2242C8.53325 13.2242 8.64425 13.1812 8.72625 13.1002L11.9132 9.91325C11.9943 9.83125 12.0373 9.72425 12.0373 9.61325C12.0373 9.50125 11.9943 9.39425 11.9132 9.31225L8.72625 6.12525C8.55925 5.95825 8.29325 5.95825 8.12525 6.12525C7.95825 6.29325 7.95825 6.55925 8.12525 6.72625L11.0122 9.61325L8.12525 12.4992C7.96225 12.6673 7.96225 12.9372 8.12525 13.1002Z" fill="white"/>
</svg>
